<svg width="8" height="14" viewBox="0 0 8 14" fill="none" xmlns="http://www.w3.org/2000/svg">
<path d="M0.389678 7.09744C0.412178 7.24744 0.479678 7.38619 0.584678 7.49493L6.34468 13.4949C6.47312 13.6468 6.65781 13.7387 6.85561 13.749C7.05343 13.7602 7.24749 13.689 7.39093 13.5531C7.53531 13.4162 7.61594 13.2259 7.615 13.0281C7.615 12.8293 7.5325 12.6409 7.38718 12.5049L2.09974 6.99981L7.38718 1.49469C7.5325 1.35875 7.615 1.17031 7.615 0.971562C7.61593 0.773749 7.53531 0.583434 7.39093 0.446562C7.2475 0.310623 7.05345 0.239374 6.85561 0.250622C6.6578 0.260935 6.4731 0.35281 6.34468 0.504687L0.585637 6.50469C0.433763 6.66219 0.362511 6.88062 0.390637 7.0972L0.389678 7.09744Z" fill="#1D1D1D"/>
</svg>
