<svg width="20" height="20" viewBox="0 0 20 20" fill="none" xmlns="http://www.w3.org/2000/svg">
<path d="M7.77778 10.6111H1.11111C0.776143 10.6111 0.5 10.335 0.5 10V1.11111C0.5 0.776142 0.776142 0.5 1.11111 0.5H7.77778C8.11275 0.5 8.38889 0.776142 8.38889 1.11111V10C8.38889 10.335 8.11275 10.6111 7.77778 10.6111ZM7.77778 19.5H1.11111C0.776142 19.5 0.5 19.2239 0.5 18.8889V14.4444C0.5 14.1095 0.776142 13.8333 1.11111 13.8333H7.77778C8.11275 13.8333 8.38889 14.1095 8.38889 14.4444V18.8889C8.38889 19.2239 8.11275 19.5 7.77778 19.5ZM18.8889 19.5H12.2222C11.8873 19.5 11.6111 19.2239 11.6111 18.8889V10C11.6111 9.66503 11.8873 9.38889 12.2222 9.38889H18.8889C19.2239 9.38889 19.5 9.66503 19.5 10V18.8889C19.5 19.2239 19.2239 19.5 18.8889 19.5ZM11.6111 5.55556V1.11111C11.6111 0.776143 11.8873 0.5 12.2222 0.5H18.8889C19.2239 0.5 19.5 0.776142 19.5 1.11111V5.55556C19.5 5.89052 19.2239 6.16667 18.8889 6.16667H12.2222C11.8873 6.16667 11.6111 5.89052 11.6111 5.55556Z" stroke="#D8D8D8"/>
</svg>
