<?xml version="1.0" encoding="UTF-8"?>
<svg width="28px" height="28px" viewBox="0 0 28 28" version="1.1" xmlns="http://www.w3.org/2000/svg" xmlns:xlink="http://www.w3.org/1999/xlink">
    <title>Edit</title>
    <defs>
        <filter x="-36.1%" y="-36.1%" width="172.2%" height="172.2%" filterUnits="objectBoundingBox" id="filter-1">
            <feOffset dx="0" dy="1" in="SourceAlpha" result="shadowOffsetOuter1"></feOffset>
            <feGaussianBlur stdDeviation="1" in="shadowOffsetOuter1" result="shadowBlurOuter1"></feGaussianBlur>
            <feColorMatrix values="0 0 0 0 0   0 0 0 0 0   0 0 0 0 0  0 0 0 0.5 0" type="matrix" in="shadowBlurOuter1" result="shadowMatrixOuter1"></feColorMatrix>
            <feMerge>
                <feMergeNode in="shadowMatrixOuter1"></feMergeNode>
                <feMergeNode in="SourceGraphic"></feMergeNode>
            </feMerge>
        </filter>
    </defs>
    <g id="Page-2" stroke="none" stroke-width="1" fill="none" fill-rule="evenodd">
        <g id="Edit" filter="url(#filter-1)" transform="translate(5.000000, 5.000000)" fill="#5D4AEE">
            <path d="M17.8816682,3.03238307 C18.0657712,3.31123874 18.0350235,3.69018246 17.7896167,3.93566588 L8.98447693,12.7407503 C8.89414963,12.8310777 8.78150392,12.8956382 8.65803426,12.9279185 L4.99087993,13.8857904 C4.87127049,13.9170171 4.74798283,13.9163466 4.6321474,13.8868441 C4.50899384,13.8555217 4.39426954,13.7916316 4.30133683,13.6986223 C4.12099833,13.5183508 4.04979014,13.2558939 4.11424533,13.0091461 L5.07211703,9.34193337 C5.10034551,9.23388541 5.15330623,9.12717848 5.22657384,9.04346047 L14.0643579,0.210415727 C14.1416582,0.13305799 14.2348591,0.0751546317 14.3362977,0.0398762085 C14.4114906,0.0137167261 14.4911855,0 14.5723173,0 C14.762838,0 14.9455999,0.07569104 15.0802766,0.210415727 L17.7896167,2.91968943 C17.8246748,2.95475712 17.8553267,2.99254517 17.8816682,3.03238307 Z M16.2656429,3.42767765 L14.5723173,1.73438039 L6.41301289,9.8936676 L5.81435265,12.1856636 L8.10630016,11.5869936 L16.2656429,3.42767765 Z" id="Shape" fill-opacity="0.798432037"></path>
            <path d="M16.2835913,13.910652 C16.5441901,11.6861457 16.6271166,9.446128 16.5322754,7.21172483 C16.5277954,7.10476277 16.5681149,7.00063654 16.6438925,6.92492567 L17.5811524,5.98916943 C17.6963916,5.8741186 17.8933181,5.94715542 17.904089,6.10950174 C18.080427,8.76419729 18.0136092,11.4309213 17.7036357,14.0765194 C17.4781138,16.0011703 15.9298669,17.5094876 14.0120729,17.7235069 C10.7077863,18.0921644 7.29216857,18.0921644 3.9879487,17.7235069 C2.07009752,17.5094876 0.521822021,16.0011703 0.296347783,14.0765194 C-0.0987825942,10.7036935 -0.0987825942,7.29632383 0.296347783,3.92352651 C0.521822021,1.99884702 2.07009752,0.490520204 3.9879487,0.276519956 C6.49456834,-0.0031706041 9.06527014,-0.0706880252 11.6027251,0.0739676926 C11.7662904,0.0832935661 11.8408289,0.280859342 11.7250178,0.396500173 L10.7789887,1.34103987 C10.7039736,1.41592283 10.6011257,1.45614779 10.495037,1.4525697 C8.3728817,1.38111258 6.23628572,1.46196219 4.14675767,1.69511855 C2.87892618,1.83658634 1.86332463,2.83541594 1.71643038,4.08934625 C1.33420603,7.35199358 1.33420603,10.6480237 1.71643038,13.910652 C1.86332463,15.1646014 2.87892618,16.1634215 4.14675767,16.3049273 C7.34545121,16.6617847 10.6545037,16.6617847 13.8531782,16.3049273 C15.1210955,16.1634215 16.1366112,15.1646014 16.2835913,13.910652 Z" id="Path" fill-opacity="0.8" fill-rule="nonzero"></path>
        </g>
    </g>
</svg>