<svg width="40" height="40" viewBox="0 0 40 40" fill="none" xmlns="http://www.w3.org/2000/svg">
<path d="M19.1729 22.2784L19.173 22.2784L19.1683 22.2757C18.6686 21.9856 18.375 21.4519 18.375 20.88V11.44C18.375 10.8471 18.8471 10.375 19.44 10.375H19.56C20.1529 10.375 20.625 10.8471 20.625 11.44V20.52V20.7334L20.8084 20.8424L28.5484 25.4424L28.5484 25.4424L28.5539 25.4456C29.0672 25.7389 29.2311 26.4008 28.921 26.9029L28.9209 26.9029L28.9168 26.9099C28.6287 27.3997 27.9842 27.5582 27.4715 27.2576C27.471 27.2573 27.4706 27.257 27.4701 27.2568L19.1729 22.2784ZM0.375 20C0.375 9.16662 9.14759 0.375 19.98 0.375C30.8331 0.375 39.625 9.16735 39.625 20C39.625 30.8326 30.8331 39.625 19.98 39.625C9.14759 39.625 0.375 30.8334 0.375 20ZM3.625 20C3.625 29.0471 10.9529 36.375 20 36.375C29.0471 36.375 36.375 29.0471 36.375 20C36.375 10.9529 29.0471 3.625 20 3.625C10.9529 3.625 3.625 10.9529 3.625 20Z" fill="#5A4FE5" stroke="white" stroke-width="0.75"/>
</svg>
