<svg width="48" height="40" viewBox="0 0 48 40" fill="none" xmlns="http://www.w3.org/2000/svg">
<path d="M34.9091 27.1667H35.4091V26.6667V22.2222C35.4091 21.2675 36.1757 20.5 37.0909 20.5C38.0062 20.5 38.7727 21.2675 38.7727 22.2222V28.8889C38.7727 29.8437 38.0062 30.6111 37.0909 30.6111H30.5455C29.6302 30.6111 28.8636 29.8437 28.8636 28.8889C28.8636 27.9341 29.6302 27.1667 30.5455 27.1667H34.9091ZM13.0909 12.8333H12.5909V13.3333V17.7778C12.5909 18.7325 11.8243 19.5 10.9091 19.5C9.99384 19.5 9.22727 18.7325 9.22727 17.7778V11.1111C9.22727 10.1563 9.99384 9.38889 10.9091 9.38889H17.4545C18.3698 9.38889 19.1364 10.1563 19.1364 11.1111C19.1364 12.0659 18.3698 12.8333 17.4545 12.8333H13.0909ZM4.36364 0.5H43.6364C45.7516 0.5 47.5 2.26745 47.5 4.44444V35.5556C47.5 37.7325 45.7516 39.5 43.6364 39.5H4.36364C2.24839 39.5 0.5 37.7325 0.5 35.5556V4.44444C0.5 2.26745 2.24839 0.5 4.36364 0.5ZM6.54545 36.0778H41.4545C42.9393 36.0778 44.1364 34.8452 44.1364 33.3556V6.64444C44.1364 5.15477 42.9393 3.92222 41.4545 3.92222H6.54545C5.0607 3.92222 3.86364 5.15477 3.86364 6.64444V33.3556C3.86364 34.8452 5.0607 36.0778 6.54545 36.0778Z" fill="#5A4FE5" stroke="white"/>
</svg>
