<svg width="175" height="33" viewBox="0 0 175 33" fill="none" xmlns="http://www.w3.org/2000/svg">
<path d="M69.4326 8.71084C71.2389 8.71084 72.691 9.29227 73.7889 10.4551C74.9046 11.5995 75.4624 13.2054 75.4624 15.2727V24.271H71.7436V15.7988C71.7436 14.599 71.4514 13.6853 70.867 13.0577C70.2826 12.4117 69.4857 12.0887 68.4763 12.0887C67.4669 12.0887 66.6611 12.4117 66.059 13.0577C65.4746 13.6853 65.1824 14.599 65.1824 15.7988V24.271H61.4635V15.7988C61.4635 14.599 61.1714 13.6853 60.587 13.0577C60.0026 12.4117 59.2057 12.0887 58.1963 12.0887C57.1691 12.0887 56.3545 12.4117 55.7524 13.0577C55.168 13.6853 54.8758 14.599 54.8758 15.7988V24.271H51.157V8.93234H54.8758V10.7874C55.354 10.1413 55.9649 9.63375 56.7087 9.26458C57.4702 8.89542 58.3025 8.71084 59.2057 8.71084C60.3567 8.71084 61.3839 8.96925 62.287 9.48608C63.1902 9.98445 63.8897 10.7043 64.3855 11.6457C64.8637 10.7597 65.5543 10.0491 66.4575 9.51377C67.3783 8.97848 68.37 8.71084 69.4326 8.71084Z" fill="#060606"/>
<path fill-rule="evenodd" clip-rule="evenodd" d="M59.2057 8.84915C58.3231 8.84915 57.5126 9.02931 56.772 9.38824C56.048 9.74768 55.4548 10.2409 54.9902 10.8685L54.7346 11.214V9.07065H51.2982V24.1327H54.7346V15.7988C54.7346 14.5787 55.0317 13.6264 55.648 12.9645C56.281 12.2854 57.136 11.9504 58.1963 11.9504C59.2392 11.9504 60.0769 12.2856 60.692 12.9653C61.3079 13.6271 61.6048 14.5792 61.6048 15.7988V24.1327H65.0411V15.7988C65.0411 14.5787 65.3383 13.6264 65.9546 12.9645C66.5871 12.2859 67.4329 11.9504 68.4763 11.9504C69.5192 11.9504 70.3569 12.2857 70.9721 12.9653C71.5879 13.6272 71.8848 14.5792 71.8848 15.7988V24.1327H75.3212V15.2727C75.3212 13.2297 74.7704 11.6622 73.6868 10.5506L73.6852 10.549C72.6173 9.41795 71.2046 8.84915 69.4326 8.84915C68.3958 8.84915 67.4291 9.1099 66.53 9.63242C65.6483 10.1551 64.9761 10.8474 64.5104 11.7103L64.384 11.9446L64.26 11.7091C63.7762 10.7906 63.0957 10.0911 62.2177 9.60658L62.2157 9.60551C61.3363 9.10228 60.3343 8.84915 59.2057 8.84915ZM56.646 9.14063C57.4282 8.76143 58.2822 8.57253 59.2057 8.57253C60.3788 8.57253 61.4307 8.83607 62.3574 9.36614C63.2121 9.83799 63.8889 10.5032 64.3872 11.3586C64.8702 10.5525 65.5366 9.89785 66.3843 9.39544L66.3853 9.39484C67.3278 8.84697 68.3444 8.57253 69.4326 8.57253C71.2727 8.57253 72.764 9.16632 73.8919 10.3604C75.0391 11.5376 75.6037 13.1816 75.6037 15.2727V24.4094H71.6023V15.7988C71.6023 14.6193 71.315 13.7442 70.7626 13.1509L70.7612 13.1494C70.2077 12.5375 69.4517 12.227 68.4763 12.227C67.5009 12.227 66.7351 12.5375 66.1634 13.1509C65.611 13.7442 65.3237 14.6193 65.3237 15.7988V24.4094H61.3223V15.7988C61.3223 14.6193 61.035 13.7442 60.4826 13.1509L60.4812 13.1494C59.9276 12.5375 59.1717 12.227 58.1963 12.227C57.2023 12.227 56.428 12.538 55.8568 13.1509C55.3044 13.7442 55.0171 14.6193 55.0171 15.7988V24.4094H51.0157V8.79402H55.0171V10.3877C55.465 9.87293 56.008 9.4573 56.6448 9.14122L56.646 9.14063Z" fill="#060606"/>
<path d="M92.8844 16.5207C92.8844 17.072 92.8476 17.5681 92.774 18.0091H81.6C81.692 19.1116 82.0782 19.9753 82.7588 20.6C83.4393 21.2248 84.2762 21.5371 85.2695 21.5371C86.7042 21.5371 87.725 20.9216 88.332 19.6904H92.4981C92.0567 21.1605 91.2106 22.3732 89.9598 23.3287C88.7091 24.2659 87.1732 24.7344 85.3523 24.7344C83.8808 24.7344 82.5564 24.4129 81.3793 23.7697C80.2205 23.1082 79.31 22.1803 78.6478 20.9859C78.0041 19.7915 77.6822 18.4134 77.6822 16.8515C77.6822 15.2712 78.0041 13.8839 78.6478 12.6895C79.2916 11.4951 80.1929 10.5764 81.3517 9.93323C82.5105 9.2901 83.844 8.96853 85.3523 8.96853C86.8054 8.96853 88.1021 9.28091 89.2425 9.90566C90.4013 10.5304 91.2934 11.4216 91.9188 12.5792C92.5625 13.7185 92.8844 15.0323 92.8844 16.5207ZM88.8838 15.4182C88.8654 14.426 88.5067 13.6358 87.8078 13.0478C87.1088 12.4414 86.2535 12.1382 85.2419 12.1382C84.2854 12.1382 83.4761 12.4322 82.814 13.0203C82.1702 13.5899 81.7747 14.3892 81.6276 15.4182H88.8838Z" fill="#060606"/>
<path d="M125.691 11.4216C126.188 10.7234 126.868 10.1445 127.733 9.68516C128.616 9.20741 129.618 8.96853 130.74 8.96853C132.046 8.96853 133.223 9.2901 134.272 9.93323C135.338 10.5764 136.175 11.4951 136.782 12.6895C137.408 13.8655 137.72 15.2345 137.72 16.7963C137.72 18.3582 137.408 19.7456 136.782 20.9583C136.175 22.1527 135.338 23.0807 134.272 23.7422C133.223 24.4037 132.046 24.7344 130.74 24.7344C129.618 24.7344 128.625 24.5047 127.76 24.0454C126.914 23.586 126.224 23.0072 125.691 22.3089V31.7629H121.828V9.21659H125.691V11.4216ZM133.775 16.7963C133.775 15.8776 133.582 15.0875 133.196 14.426C132.828 13.7461 132.331 13.2316 131.706 12.8824C131.099 12.5333 130.437 12.3587 129.719 12.3587C129.02 12.3587 128.358 12.5425 127.733 12.91C127.126 13.2591 126.629 13.7736 126.243 14.4535C125.875 15.1334 125.691 15.9327 125.691 16.8515C125.691 17.7702 125.875 18.5696 126.243 19.2494C126.629 19.9293 127.126 20.453 127.733 20.8205C128.358 21.1696 129.02 21.3442 129.719 21.3442C130.437 21.3442 131.099 21.1604 131.706 20.7929C132.331 20.4254 132.828 19.9018 133.196 19.2219C133.582 18.542 133.775 17.7335 133.775 16.7963Z" fill="#060606"/>
<path d="M148.032 8.99609C149.191 8.99609 150.221 9.25334 151.122 9.76785C152.023 10.264 152.722 11.0082 153.219 12.0004C153.734 12.9743 153.991 14.1503 153.991 15.5285V24.4864H150.129V16.0522C150.129 14.8394 149.825 13.9114 149.218 13.2683C148.611 12.6068 147.783 12.2761 146.735 12.2761C145.668 12.2761 144.822 12.6068 144.197 13.2683C143.59 13.9114 143.286 14.8394 143.286 16.0522V24.4864H139.424V1.2188H143.286V11.1184C143.783 10.4569 144.445 9.94241 145.273 9.57491C146.1 9.18903 147.02 8.99609 148.032 8.99609Z" fill="#060606"/>
<path d="M158.52 7.39745C157.839 7.39745 157.269 7.18614 156.809 6.76351C156.368 6.32251 156.147 5.78044 156.147 5.13731C156.147 4.49418 156.368 3.9613 156.809 3.53867C157.269 3.09766 157.839 2.87716 158.52 2.87716C159.2 2.87716 159.761 3.09766 160.203 3.53867C160.663 3.9613 160.893 4.49418 160.893 5.13731C160.893 5.78044 160.663 6.32251 160.203 6.76351C159.761 7.18614 159.2 7.39745 158.52 7.39745ZM160.424 9.21659V24.4864H156.561V9.21659H160.424Z" fill="#060606"/>
<path d="M168.985 24.7344C167.735 24.7344 166.613 24.5139 165.619 24.0729C164.626 23.6135 163.835 22.998 163.247 22.2262C162.676 21.4545 162.364 20.6 162.308 19.6629H166.199C166.272 20.2509 166.557 20.7378 167.054 21.1237C167.569 21.5096 168.204 21.7025 168.958 21.7025C169.693 21.7025 170.264 21.5555 170.668 21.2615C171.091 20.9675 171.303 20.5908 171.303 20.1314C171.303 19.6353 171.045 19.2678 170.53 19.0289C170.034 18.7717 169.234 18.4961 168.13 18.202C166.99 17.9264 166.052 17.6416 165.316 17.3476C164.598 17.0536 163.973 16.6034 163.44 15.997C162.925 15.3906 162.667 14.573 162.667 13.5439C162.667 12.6987 162.906 11.9269 163.384 11.2287C163.881 10.5304 164.58 9.97916 165.481 9.57491C166.401 9.17066 167.477 8.96853 168.709 8.96853C170.53 8.96853 171.983 9.42791 173.069 10.3467C174.154 11.247 174.752 12.469 174.862 14.0125H171.165C171.11 13.4061 170.852 12.9284 170.392 12.5792C169.951 12.2117 169.353 12.028 168.599 12.028C167.9 12.028 167.357 12.1566 166.971 12.4139C166.603 12.6711 166.419 13.0294 166.419 13.4888C166.419 14.0033 166.677 14.3984 167.192 14.674C167.707 14.9313 168.507 15.1977 169.592 15.4733C170.696 15.749 171.606 16.0338 172.324 16.3278C173.041 16.6218 173.657 17.0812 174.172 17.7059C174.706 18.3123 174.982 19.1208 175 20.1314C175 21.0135 174.752 21.8036 174.255 22.5018C173.777 23.2001 173.078 23.7514 172.158 24.1556C171.257 24.5415 170.199 24.7344 168.985 24.7344Z" fill="#060606"/>
<path d="M113.414 8.71076C115.22 8.71076 116.672 9.29219 117.77 10.4551C118.886 11.5995 119.443 13.2053 119.443 15.2726V24.271H115.725V15.7987C115.725 14.5989 115.432 13.6852 114.848 13.0576C114.264 12.4116 113.467 12.0886 112.457 12.0886C111.448 12.0886 110.642 12.4116 110.04 13.0576C109.456 13.6852 109.163 14.5989 109.163 15.7987V24.271H105.445V15.7987C105.445 14.5989 105.152 13.6852 104.568 13.0576C103.984 12.4116 103.187 12.0886 102.177 12.0886C101.15 12.0886 100.335 12.4116 99.7334 13.0576C99.149 13.6852 98.8568 14.5989 98.8568 15.7987V24.271H95.1379V8.93225H98.8568V10.7873C99.3349 10.1413 99.9459 9.63366 100.69 9.2645C101.451 8.89534 102.283 8.71076 103.187 8.71076C104.338 8.71076 105.365 8.96917 106.268 9.486C107.171 9.98437 107.871 10.7042 108.366 11.6456C108.845 10.7596 109.535 10.049 110.438 9.51369C111.359 8.9784 112.351 8.71076 113.414 8.71076Z" fill="#060606"/>
<path fill-rule="evenodd" clip-rule="evenodd" d="M20.8074 30.2906C20.7002 30.7103 20.485 31.0719 20.1694 31.4199C19.826 31.7929 19.3465 32.1124 18.8338 32.3634C17.6667 32.9348 16.3128 33.1069 14.9775 32.9382L14.9687 32.9371L14.9598 32.9362C13.7495 32.8136 12.5851 32.3248 11.6724 31.5167L0.871088 21.0327L0.870059 21.0317C0.563715 20.7317 0.355114 20.4822 0.220368 20.1854C0.0722207 19.859 0.00068219 19.5428 0 19.1863L0.0939552 13.3908L0.0924158 13.3652C0.0579673 12.7918 0.256823 12.2377 0.748677 11.719L0.752395 11.7151L0.756051 11.7111C1.09803 11.3391 1.5753 11.0203 2.08612 10.7695C3.23633 10.239 4.6414 10.057 5.97561 10.2202C7.31704 10.3844 8.51387 10.8877 9.28804 11.6457L9.28967 11.6473L20.1189 22.1125L20.1326 22.1245C20.4488 22.3996 20.6721 22.7532 20.8287 23.1749C20.9359 23.4635 21.0004 23.7178 21.0199 23.9671L20.8801 29.8534V29.8614C20.8801 29.956 20.8517 30.1169 20.8074 30.2906Z" fill="#FFC633"/>
<path d="M25.5043 9.9044C25.6844 10.1744 25.8288 10.4673 25.9328 10.7763C26.0674 11.1761 26.1671 11.7998 26.1595 12.2172L26.1238 14.2961L33.335 21.3543C34.2478 22.1624 35.4122 22.6513 36.6225 22.7739L36.6313 22.7747L36.6401 22.7759C37.9755 22.9446 39.3293 22.7724 40.4965 22.2011C41.0092 21.9501 41.4887 21.6306 41.8321 21.2575C42.1477 20.9095 42.3629 20.5479 42.4701 20.1282C42.5144 19.9545 42.5427 19.7936 42.5427 19.6991V19.6911L42.6826 13.8046C42.6781 13.7475 42.6712 13.6899 42.662 13.6315L25.5043 9.9044Z" fill="#6557FF"/>
<path d="M42.6618 13.6302C42.6312 13.4378 42.5746 13.2365 42.4914 13.0125C42.3348 12.5908 42.1115 12.2373 41.7953 11.9621L41.7816 11.9502L30.9523 1.48491L30.9507 1.48332C30.1765 0.725321 28.9797 0.222047 27.6383 0.0578721C26.3041 -0.105419 24.899 0.0765952 23.7488 0.607082C23.238 0.857918 22.7607 1.17673 22.4187 1.54877L22.4151 1.55274L22.4113 1.55667C21.9195 2.07529 21.7206 2.62943 21.7551 3.20282L21.7566 3.22844L21.6622 7.64187C22.8629 7.93014 24.0088 8.34978 24.8432 9.15394C25.0977 9.37511 25.3198 9.62778 25.5043 9.9044L42.6618 13.6302Z" fill="#6557FF"/>
<path d="M43.3854 13.7873L43.3854 13.7859Z" fill="#6557FF"/>
<path d="M43.3854 13.7873L43.3854 13.7887Z" fill="#6557FF"/>
<path d="M24.4194 20.0595C24.4392 20.0394 24.4587 20.019 24.4781 19.9985C24.856 19.6017 25.125 19.1176 25.2599 18.5913C25.3109 18.3933 25.3392 18.1904 25.3442 17.9862L25.4568 12.0585C25.4524 12.2583 25.3836 11.9004 25.3352 12.0946C25.3786 11.8988 25.4531 12.27 25.4566 12.0713L25.4566 12.0709C25.4626 11.7311 25.4104 11.3912 25.3008 11.0658C25.1271 10.55 24.8156 10.089 24.3985 9.7308C22.5633 7.9477 18.9585 7.4985 16.3742 8.72237C15.7898 8.99136 15.2637 9.36796 14.8246 9.83164C14.1944 10.5062 13.8943 11.299 13.9532 12.0934L13.9423 12.6018L24.4194 20.0595L24.419 20.0597L13.9423 12.6018L13.8918 14.9683L20.7611 21.6068C20.8011 21.6415 20.8397 21.6771 20.8772 21.7135C21.5929 21.6101 22.2888 21.4115 22.9238 21.1124C23.4835 20.8531 23.9901 20.4963 24.419 20.0597L24.4194 20.0595Z" fill="#61DFC6"/>
</svg>
