
<svg width="37" height="40" viewBox="0 0 37 40" fill="none" xmlns="http://www.w3.org/2000/svg">
<path d="M0.25 39.3964V7.27273C0.25 5.4108 1.77443 3.88636 3.63636 3.88636H21.7025C21.6205 4.39217 21.5682 4.92223 21.5682 5.45455C21.5682 5.98686 21.6205 6.51693 21.7025 7.02273H3.63636H3.38636V7.27273V29.0909V29.3409H3.63636H32.7273H32.9773V29.0909V14.5655C34.119 14.3054 35.1786 13.8177 36.1136 13.179V29.0909C36.1136 30.9528 34.5892 32.4773 32.7273 32.4773H7.27273H7.16917L7.09595 32.5505L0.25 39.3964ZM30.9091 10.6591C28.029 10.6591 25.7045 8.33466 25.7045 5.45455C25.7045 2.57443 28.029 0.25 30.9091 0.25C33.7892 0.25 36.1136 2.57443 36.1136 5.45455C36.1136 8.33466 33.7892 10.6591 30.9091 10.6591Z" fill="#5A4FE5" stroke="white" stroke-width="0.5"/>
</svg>
