<svg width="534" height="1024" viewBox="0 0 534 1024" fill="none" xmlns="http://www.w3.org/2000/svg">
<path d="M323.051 534C206.821 534 112.598 628.223 112.598 744.453L112.598 1100.11L533.504 1100.11L533.504 744.453C533.504 628.223 439.281 534 323.051 534Z" fill="#6557FF"/>
<path d="M323.051 534C206.821 534 112.598 628.223 112.598 744.453L112.598 1100.11L533.504 1100.11L533.504 744.453C533.504 628.223 439.281 534 323.051 534Z" fill="url(#paint0_linear_0_1)" fill-opacity="0.35"/>
<path d="M323.051 534C206.821 534 112.598 628.223 112.598 744.453L112.598 1100.11L533.504 1100.11L533.504 744.453C533.504 628.223 439.281 534 323.051 534Z" fill="url(#paint1_linear_0_1)" fill-opacity="0.75"/>
<path d="M190.847 139.456C189.815 140.049 189.815 141.538 190.847 142.131L529.582 336.74C530.61 337.331 531.893 336.589 531.893 335.403L531.892 -53.8165C531.892 -55.0024 530.61 -55.7447 529.582 -55.1539L190.847 139.456Z" fill="#45E2C3"/>
<path d="M309.709 40C265.809 104.477 265.809 168.954 309.709 233.431C353.608 297.907 353.608 362.384 309.709 426.861C265.809 491.338 265.809 555.815 309.709 620.292C353.608 684.768 353.608 749.245 309.709 813.722" stroke="#3F3F3F" stroke-width="5.65715"/>
<path d="M6.0822e-06 349.145C77.4671 349.145 140.267 286.848 140.267 210C140.267 286.848 203.066 349.145 280.534 349.145C203.066 349.145 140.267 411.441 140.267 488.289C140.267 411.441 77.4671 349.145 6.0822e-06 349.145Z" fill="#FDECC2"/>
<defs>
<linearGradient id="paint0_linear_0_1" x1="370.665" y1="619.681" x2="380.803" y2="970.349" gradientUnits="userSpaceOnUse">
<stop stop-color="white"/>
<stop offset="1" stop-color="white" stop-opacity="0"/>
</linearGradient>
<linearGradient id="paint1_linear_0_1" x1="71.1004" y1="452.492" x2="56.2818" y2="1171.24" gradientUnits="userSpaceOnUse">
<stop stop-color="#4FE4C6"/>
<stop offset="1" stop-color="#4FE4C6" stop-opacity="0"/>
</linearGradient>
</defs>
</svg>
