<svg width="19" height="25" viewBox="0 0 19 25" fill="none" xmlns="http://www.w3.org/2000/svg">
<path d="M19 23L19 2C19 0.895431 18.1046 -4.12006e-08 17 -9.2024e-08L4.0303 -6.88785e-07L2 -7.82204e-07C0.895433 -8.33027e-07 1.87017e-06 0.89543 1.8243e-06 2L9.52255e-07 23C9.06387e-07 24.1046 0.895432 25 2 25L17 25C18.1046 25 19 24.1046 19 23Z" fill="#4FE4C6"/>
<line x1="4.63633" y1="9.9496" x2="14.3636" y2="9.9496" stroke="white" stroke-width="1.21212" stroke-linecap="round"/>
<line x1="4.63633" y1="6.06093" x2="14.3636" y2="6.06093" stroke="white" stroke-width="1.21212" stroke-linecap="round"/>
<line x1="4.63633" y1="13.8388" x2="14.3636" y2="13.8388" stroke="white" stroke-width="1.21212" stroke-linecap="round"/>
<line x1="4.63633" y1="17.7269" x2="14.3636" y2="17.7269" stroke="white" stroke-width="1.21212" stroke-linecap="round"/>
</svg>
