<svg width="20" height="15" viewBox="0 0 20 15" fill="none" xmlns="http://www.w3.org/2000/svg">
<path d="M14 14.475H6C5.73995 14.475 5.525 14.2601 5.525 14V1C5.525 0.739949 5.73995 0.525 6 0.525H14C14.2601 0.525 14.475 0.739949 14.475 1V14C14.475 14.2601 14.2601 14.475 14 14.475ZM3 12.475H1C0.739949 12.475 0.525 12.2601 0.525 12V3C0.525 2.73995 0.739949 2.525 1 2.525H3C3.26005 2.525 3.475 2.73995 3.475 3V12C3.475 12.2601 3.26005 12.475 3 12.475ZM16.525 12V3C16.525 2.73995 16.74 2.525 17 2.525H19C19.26 2.525 19.475 2.73995 19.475 3V12C19.475 12.2601 19.26 12.475 19 12.475H17C16.74 12.475 16.525 12.2601 16.525 12Z" stroke="#5A4FE5" stroke-width="1.05"/>
</svg>
