<svg width="22" height="15" viewBox="0 0 22 15" fill="none" xmlns="http://www.w3.org/2000/svg">
<path d="M3.8979 4.58993C3.8979 3.43992 4.83708 2.5 5.97853 2.5C7.12004 2.5 8.05916 3.43991 8.05916 4.58993C8.05916 5.73994 7.12004 6.67986 5.97853 6.67986C4.83702 6.67986 3.8979 5.73994 3.8979 4.58993ZM11.4986 13.5H0.50041C0.536615 10.4825 2.96732 8.06828 5.97853 8.06828C8.98644 8.06828 11.4204 10.4794 11.4986 13.5Z" fill="white" stroke="#5A4FE5"/>
<path d="M11.7474 3.23741C11.7474 1.73129 12.9769 0.5 14.4732 0.5C15.9695 0.5 17.1989 1.73128 17.1989 3.23741C17.1989 4.74354 15.9695 5.97482 14.4732 5.97482C12.9768 5.97482 11.7474 4.74354 11.7474 3.23741ZM7.5 14.4604C7.5 10.5801 10.6113 7.46035 14.4732 7.46035C18.3323 7.46035 21.4473 10.578 21.5 14.4622C21.4998 14.4715 21.498 14.4757 21.4973 14.4772C21.4963 14.4795 21.4943 14.4828 21.4902 14.4867C21.4858 14.4908 21.4799 14.4946 21.4735 14.4972C21.4671 14.4998 21.463 14.5 21.4624 14.5H7.53763C7.52107 14.5 7.5101 14.4982 7.50375 14.4966C7.50205 14.49 7.5 14.4783 7.5 14.4604Z" fill="white" stroke="#5A4FE5"/>
</svg>
