<svg width="25" height="23" viewBox="0 0 25 23" fill="none" xmlns="http://www.w3.org/2000/svg">
<g filter="url(#filter0_i_1339_2019)">
<rect x="0.500244" y="13.4143" width="2.38675" height="5.72486" rx="1.19337" fill="#FF66E7" fill-opacity="0.1"/>
</g>
<rect x="0.741681" y="13.6557" width="1.90387" height="5.24199" rx="0.951936" stroke="#FF66E7" stroke-width="0.482873"/>
<rect x="22.3548" y="13.6557" width="1.90387" height="5.24199" rx="0.951936" fill="#FF66E7" fill-opacity="0.1" stroke="#FF66E7" stroke-width="0.482873"/>
<line x1="12.5415" y1="4.36133" x2="12.5415" y2="9.0211" stroke="#FF66E7" stroke-width="0.482873"/>
<g filter="url(#filter1_i_1339_2019)">
<rect x="9.64771" y="6.75781" width="5.83427" height="3.46155" rx="1.73077" fill="#FF66E7" fill-opacity="0.1"/>
</g>
<rect x="9.88914" y="6.99925" width="5.3514" height="2.97867" rx="1.48934" stroke="#FF66E7" stroke-width="0.482873"/>
<g filter="url(#filter2_i_1339_2019)">
<ellipse cx="12.5653" cy="2.63067" rx="2.12155" ry="2.13018" fill="#FF66E7" fill-opacity="0.1"/>
</g>
<path d="M14.4454 2.63067C14.4454 3.67472 13.6027 4.51942 12.5653 4.51942C11.5278 4.51942 10.6852 3.67472 10.6852 2.63067C10.6852 1.58662 11.5278 0.741925 12.5653 0.741925C13.6027 0.741925 14.4454 1.58662 14.4454 2.63067Z" stroke="#FF66E7" stroke-width="0.482873"/>
<g filter="url(#filter3_i_1339_2019)">
<path d="M1.69312 15.2611C1.69312 11.5942 4.66572 8.62158 8.33262 8.62158H16.6669C20.3338 8.62158 23.3064 11.5942 23.3064 15.2611V19.7409C23.3064 21.541 21.8471 23.0003 20.047 23.0003H4.95251C3.1524 23.0003 1.69312 21.541 1.69312 19.7409V15.2611Z" fill="#FF66E7" fill-opacity="0.1"/>
</g>
<path d="M1.93455 15.2611C1.93455 11.7275 4.79906 8.86302 8.33262 8.86302H16.6669C20.2005 8.86302 23.065 11.7275 23.065 15.2611V19.7409C23.065 21.4077 21.7138 22.7589 20.047 22.7589H4.95251C3.28574 22.7589 1.93455 21.4077 1.93455 19.7409V15.2611Z" stroke="#FF66E7" stroke-width="0.482873"/>
<path d="M10.6014 13.6807C10.6014 15.1659 9.4025 16.3683 7.92568 16.3683C6.44886 16.3683 5.24998 15.1659 5.24998 13.6807C5.24998 12.1955 6.44886 10.9931 7.92568 10.9931C9.4025 10.9931 10.6014 12.1955 10.6014 13.6807Z" fill="white" stroke="#FF66E7" stroke-width="0.482873"/>
<ellipse cx="7.92512" cy="13.6808" rx="1.45857" ry="1.4645" fill="#FF66E7"/>
<ellipse cx="7.3955" cy="13.4141" rx="0.530388" ry="0.532546" fill="white"/>
<path d="M19.6193 13.6807C19.6193 15.1659 18.4204 16.3683 16.9436 16.3683C15.4668 16.3683 14.2679 15.1659 14.2679 13.6807C14.2679 12.1955 15.4668 10.9931 16.9436 10.9931C18.4204 10.9931 19.6193 12.1955 19.6193 13.6807Z" fill="white" stroke="#FF66E7" stroke-width="0.482873"/>
<ellipse cx="16.9432" cy="13.6808" rx="1.45857" ry="1.4645" fill="#FF66E7"/>
<ellipse cx="16.4128" cy="13.4141" rx="0.530388" ry="0.532546" fill="white"/>
<path d="M9.91504 18.3403C10.9758 20.4039 13.9592 20.4039 15.0863 18.3403" stroke="#FF66E7" stroke-width="0.482873" stroke-linecap="round"/>
<defs>
<filter id="filter0_i_1339_2019" x="0.500244" y="13.4143" width="2.38672" height="5.72485" filterUnits="userSpaceOnUse" color-interpolation-filters="sRGB">
<feFlood flood-opacity="0" result="BackgroundImageFix"/>
<feBlend mode="normal" in="SourceGraphic" in2="BackgroundImageFix" result="shape"/>
<feColorMatrix in="SourceAlpha" type="matrix" values="0 0 0 0 0 0 0 0 0 0 0 0 0 0 0 0 0 0 127 0" result="hardAlpha"/>
<feOffset dx="0.965746" dy="0.362155"/>
<feComposite in2="hardAlpha" operator="arithmetic" k2="-1" k3="1"/>
<feColorMatrix type="matrix" values="0 0 0 0 1 0 0 0 0 1 0 0 0 0 1 0 0 0 0.25 0"/>
<feBlend mode="normal" in2="shape" result="effect1_innerShadow_1339_2019"/>
</filter>
<filter id="filter1_i_1339_2019" x="9.64771" y="6.75781" width="5.83429" height="3.46143" filterUnits="userSpaceOnUse" color-interpolation-filters="sRGB">
<feFlood flood-opacity="0" result="BackgroundImageFix"/>
<feBlend mode="normal" in="SourceGraphic" in2="BackgroundImageFix" result="shape"/>
<feColorMatrix in="SourceAlpha" type="matrix" values="0 0 0 0 0 0 0 0 0 0 0 0 0 0 0 0 0 0 127 0" result="hardAlpha"/>
<feOffset dx="0.965746" dy="0.362155"/>
<feComposite in2="hardAlpha" operator="arithmetic" k2="-1" k3="1"/>
<feColorMatrix type="matrix" values="0 0 0 0 1 0 0 0 0 1 0 0 0 0 1 0 0 0 0.25 0"/>
<feBlend mode="normal" in2="shape" result="effect1_innerShadow_1339_2019"/>
</filter>
<filter id="filter2_i_1339_2019" x="10.4437" y="0.500488" width="4.2431" height="4.26025" filterUnits="userSpaceOnUse" color-interpolation-filters="sRGB">
<feFlood flood-opacity="0" result="BackgroundImageFix"/>
<feBlend mode="normal" in="SourceGraphic" in2="BackgroundImageFix" result="shape"/>
<feColorMatrix in="SourceAlpha" type="matrix" values="0 0 0 0 0 0 0 0 0 0 0 0 0 0 0 0 0 0 127 0" result="hardAlpha"/>
<feOffset dx="0.965746" dy="0.362155"/>
<feComposite in2="hardAlpha" operator="arithmetic" k2="-1" k3="1"/>
<feColorMatrix type="matrix" values="0 0 0 0 1 0 0 0 0 1 0 0 0 0 1 0 0 0 0.25 0"/>
<feBlend mode="normal" in2="shape" result="effect1_innerShadow_1339_2019"/>
</filter>
<filter id="filter3_i_1339_2019" x="1.69312" y="8.62158" width="21.6133" height="14.3787" filterUnits="userSpaceOnUse" color-interpolation-filters="sRGB">
<feFlood flood-opacity="0" result="BackgroundImageFix"/>
<feBlend mode="normal" in="SourceGraphic" in2="BackgroundImageFix" result="shape"/>
<feColorMatrix in="SourceAlpha" type="matrix" values="0 0 0 0 0 0 0 0 0 0 0 0 0 0 0 0 0 0 127 0" result="hardAlpha"/>
<feOffset dx="0.965746" dy="0.362155"/>
<feComposite in2="hardAlpha" operator="arithmetic" k2="-1" k3="1"/>
<feColorMatrix type="matrix" values="0 0 0 0 1 0 0 0 0 1 0 0 0 0 1 0 0 0 0.25 0"/>
<feBlend mode="normal" in2="shape" result="effect1_innerShadow_1339_2019"/>
</filter>
</defs>
</svg>
